<svg xmlns="http://www.w3.org/2000/svg" viewBox="0 0 64 64"><defs><style>.cls-1{fill:#64b5f6;}.cls-1,.cls-2,.cls-3,.cls-4,.cls-5{stroke:#37474f;stroke-linecap:round;stroke-linejoin:round;}.cls-2{fill:none;}.cls-3{fill:#fff;}.cls-4{fill:#ef5350;}.cls-5{fill:#ffca28;}</style></defs><g id="Layer_2" data-name="Layer 2"><g id="Icon_Set" data-name="Icon Set"><path class="cls-1" d="M50.5.5H5.5a5,5,0,0,0-5,5v4h55v-4A5,5,0,0,0,50.5.5Z"/><rect class="cls-2" x="31.31" y="14.65" width="20" height="13" rx="1"/><circle class="cls-3" cx="5" cy="5" r="1.5"/><circle class="cls-3" cx="10" cy="5" r="1.5"/><circle class="cls-3" cx="15" cy="5" r="1.5"/><rect class="cls-4" x="52.43" y="46.43" width="6" height="18" rx="1" transform="translate(55.43 133.82) rotate(-135)"/><path class="cls-2" d="M42.22,31.18A2.5,2.5,0,0,0,42,34.89a2.5,2.5,0,0,0-3.54,3.53A2.5,2.5,0,1,0,35,42l-8.84-8.84a2.5,2.5,0,0,0-3.54,0h0a2.52,2.52,0,0,0,0,3.54l11,11h-5A2.49,2.49,0,0,0,26,50.1h0a2.49,2.49,0,0,0,2,2.44L39.66,55a20.17,20.17,0,0,1,3.24,1l5.49,2.2,9.9-9.9L57,45.06a20,20,0,0,0-4.43-6.71l-6.89-6.9A2.61,2.61,0,0,0,42.22,31.18Z"/><path class="cls-2" d="M27.6,44.5H5.5a5,5,0,0,1-5-5v-18"/><line class="cls-2" x1="0.5" y1="18.5" x2="0.5" y2="15.5"/><path class="cls-2" d="M.5,12.5v-7a5,5,0,0,1,5-5h45a5,5,0,0,1,5,5v33"/><line class="cls-3" x1="38.49" y1="38.42" x2="40.61" y2="40.55"/><line class="cls-3" x1="42.03" y1="34.89" x2="44.15" y2="37.01"/><line class="cls-3" x1="34.96" y1="41.96" x2="37.08" y2="44.08"/><polygon class="cls-5" points="16 14.5 4 18.5 16 22.5 28 18.5 16 14.5"/><path class="cls-5" d="M16,22.5,9,20.17V26.5a12,12,0,0,0,14,0V20.17Z"/><line class="cls-2" x1="26.5" y1="19" x2="26.5" y2="23.26"/><line class="cls-2" x1="33.81" y1="17.65" x2="48.81" y2="17.65"/><line class="cls-2" x1="33.81" y1="20.65" x2="48.81" y2="20.65"/><line class="cls-2" x1="33.81" y1="23.65" x2="41.31" y2="23.65"/></g></g></svg>