<svg xmlns="http://www.w3.org/2000/svg" width="68.97" height="38.3" viewBox="0 0 68.97 38.3">
  <g id="Artwork_1" data-name="Artwork 1" transform="translate(34.434 19.176)">
    <g id="Artwork_1-2" data-name="Artwork 1" transform="translate(-34 -18.587)">
      <g id="_Group_" data-name="&lt;Group&gt;" transform="translate(3.03 14.269)">
        <path id="_Path_" data-name="&lt;Path&gt;" d="M8.5,26.96,4.421,25.708,4,27.094l5.47,1.676,3.6-11.751-1.386-.425Z" transform="translate(-3.996 -16.594)" fill="#3fa311"/>
      </g>
      <g id="Specialization">
        <g id="Group_157" data-name="Group 157">
          <circle id="Ellipse_21" data-name="Ellipse 21" cx="8.672" cy="8.672" r="8.672" transform="translate(0 12.863)" fill="none" stroke="#37474f" stroke-linecap="round" stroke-linejoin="round" stroke-width="0.867"/>
          <path id="Path_847" data-name="Path 847" d="M29.294,13.214,51.684.836a2.168,2.168,0,0,1,2.949.848l.42.759A2.168,2.168,0,0,1,54.2,5.392L21.185,23.641,18.67,19.087l3.792-2.1" transform="translate(-2.914 -0.197)" fill="#ef5350" stroke="#37474f" stroke-linecap="round" stroke-linejoin="round" stroke-width="0.867"/>
          <line id="Line_32" data-name="Line 32" y1="1.258" x2="2.276" transform="translate(21.826 14.275)" fill="#ef5350" stroke="#37474f" stroke-linecap="round" stroke-linejoin="round" stroke-width="0.867"/>
          <path id="Path_848" data-name="Path 848" d="M17.582,21.923,20.1,26.477l-3.8,2.1-5.812.24,3.295-4.795Z" transform="translate(-1.828 -3.033)" fill="#ef5350" stroke="#37474f" stroke-linecap="round" stroke-linejoin="round" stroke-width="0.867"/>
          <path id="Path_849" data-name="Path 849" d="M12.689,26.184l-2.2,3.2,3.875-.16Z" transform="translate(-1.828 -3.599)" fill="none" stroke="#37474f" stroke-linecap="round" stroke-linejoin="round" stroke-width="0.867"/>
          <path id="Path_850" data-name="Path 850" d="M70.954,39.565l-8.586-2.473,5.76-20,8.587,2.473" transform="translate(-8.716 -2.391)" fill="#64b5f6" stroke="#37474f" stroke-linecap="round" stroke-linejoin="round" stroke-width="0.867"/>
          <rect id="Rectangle_622" data-name="Rectangle 622" width="6.938" height="20.814" rx="2.168" transform="translate(52.746 12.78) rotate(16.067)" fill="#64b5f6" stroke="#37474f" stroke-linecap="round" stroke-linejoin="round" stroke-width="0.867"/>
          <line id="Line_33" data-name="Line 33" x1="2.518" y1="4.554" transform="translate(30.933 10.499)" fill="none" stroke="#37474f" stroke-linecap="round" stroke-linejoin="round" stroke-width="0.867"/>
          <path id="Path_851" data-name="Path 851" d="M.867,0H11.274a.867.867,0,0,1,.867.867v1.3H0V.867A.867.867,0,0,1,.867,0Z" transform="translate(34.818 5.874) rotate(-28.933)" fill="none" stroke="#37474f" stroke-linecap="round" stroke-linejoin="round" stroke-width="0.867"/>
          <line id="Line_34" data-name="Line 34" x1="4.412" y1="3.955" transform="translate(46.192 9.99)" fill="none" stroke="#37474f" stroke-linecap="round" stroke-linejoin="round" stroke-width="0.867"/>
          <path id="Path_852" data-name="Path 852" d="M40.1,17.972l-1.156,4.014a4.336,4.336,0,0,1-5.366,2.967l-5.3-1.525a2.255,2.255,0,0,0-2.73,1.238,2.168,2.168,0,0,0,1.412,2.9l12.6,3.629a13.009,13.009,0,0,0,8.039-.272l2.953-1.073" transform="translate(-3.806 -2.508)" fill="none" stroke="#37474f" stroke-linecap="round" stroke-linejoin="round" stroke-width="0.867"/>
          <path id="Path_853" data-name="Path 853" d="M36.353,6.05,29.171,6a4.336,4.336,0,0,0-3.026,1.2l-8.317,7.96a2.255,2.255,0,0,0-.3,2.98,2.168,2.168,0,0,0,3.209.237l8.4-8.045,2.727.073" transform="translate(-2.706 -0.92)" fill="none" stroke="#37474f" stroke-linecap="round" stroke-linejoin="round" stroke-width="0.867"/>
        </g>
      </g>
    </g>
  </g>
</svg>
