<svg xmlns="http://www.w3.org/2000/svg" viewBox="0 0 59 64"><defs><style>.cls-1{fill:#fff;}.cls-2{fill:#64b5f6;}.cls-3{fill:none;}.cls-3,.cls-4,.cls-5{stroke:#37474f;stroke-linecap:round;stroke-linejoin:round;}.cls-4{fill:#ef5350;}.cls-5{fill:#ffca28;}</style></defs><g id="Layer_2" data-name="Layer 2"><g id="Icon_Set" data-name="Icon Set"><path class="cls-1" d="M38.71,34.83a3,3,0,0,1-.56-1.74A3,3,0,0,1,39,31L44.5,25.5V14A2.5,2.5,0,0,0,42,11.5H7A2.5,2.5,0,0,0,4.5,14V53A2.5,2.5,0,0,0,7,55.5H18Z"/><path class="cls-2" d="M43.5,7.5H5.5a5,5,0,0,0-5,5v42a5,5,0,0,0,5,5H16.33l1-3a2.06,2.06,0,0,1,.49-.78L18,55.5H7A2.5,2.5,0,0,1,4.5,53V14A2.5,2.5,0,0,1,7,11.5H42A2.5,2.5,0,0,1,44.5,14V25.5h0l3-3a3.14,3.14,0,0,1,1-.65V12.5A5,5,0,0,0,43.5,7.5Z"/><path class="cls-1" d="M32.18,55.5H42A2.5,2.5,0,0,0,44.5,53V43.18Z"/><path class="cls-2" d="M44.5,43.18V53A2.5,2.5,0,0,1,42,55.5H32.18l-3.75,3.75h0l-.24.24H43.5a5,5,0,0,0,5-5V39.18Z"/><path class="cls-3" d="M48.5,21.84V12.5a5,5,0,0,0-5-5H5.5a5,5,0,0,0-5,5v42a5,5,0,0,0,5,5H16.33"/><path class="cls-3" d="M28.18,59.5H43.5a5,5,0,0,0,5-5V39.18"/><path class="cls-3" d="M4.5,26V53A2.5,2.5,0,0,0,7,55.5H18"/><line class="cls-3" x1="4.5" y1="20" x2="4.5" y2="23"/><path class="cls-3" d="M44.5,25.5V14A2.5,2.5,0,0,0,42,11.5H7A2.5,2.5,0,0,0,4.5,14v3"/><path class="cls-3" d="M32.18,55.5H42A2.5,2.5,0,0,0,44.5,53V43.18"/><path class="cls-4" d="M29.5,5.5a5,5,0,0,0-10,0h-3a1,1,0,0,0-1,1v6a1,1,0,0,0,1,1h16a1,1,0,0,0,1-1v-6a1,1,0,0,0-1-1Zm-5,2a2,2,0,1,1,2-2A2,2,0,0,1,24.5,7.5Z"/><path class="cls-5" d="M22.77,53.6,27,57.84,57.77,27.08a2.5,2.5,0,0,0,0-3.53l-.71-.71a2.5,2.5,0,0,0-3.53,0Z"/><polygon class="cls-3" points="22.77 53.6 27.01 57.84 23.47 61.38 17.11 63.5 19.23 57.14 22.77 53.6"/><polygon class="cls-3" points="18.52 59.26 17.11 63.5 21.35 62.09 18.52 59.26"/><path class="cls-3" d="M39.57,27.78h12a1,1,0,0,1,1,1v1.5a0,0,0,0,1,0,0h-14a0,0,0,0,1,0,0v-1.5a1,1,0,0,1,1-1Z" transform="translate(-7.18 40.73) rotate(-45)"/><line class="cls-3" x1="41.15" y1="43.7" x2="36.91" y2="39.46"/></g></g></svg>