<svg xmlns="http://www.w3.org/2000/svg" width="63.519" height="50.614" viewBox="0 0 63.519 50.614">
  <g id="Investment_In_Education" data-name="Investment In Education" transform="translate(31.76 25.307)">
    <g id="Investment_In_Education-2" data-name="Investment In Education" transform="translate(-31.263 -24.811)">
      <g id="Group_161" data-name="Group 161">
        <path id="Path_869" data-name="Path 869" d="M39.772,16.015a10.879,10.879,0,0,1-16.07,0L.473,22.537l31.263,8.932L63,22.537Zm-1.1,7.013a.992.992,0,0,1-.992.992H25.769a.992.992,0,0,1-.992-.992v-.992a.992.992,0,0,1,.992-.992H37.68a.992.992,0,0,1,.992.992Z" transform="translate(-0.473 0.29)" fill="#54a4dc"/>
        <path id="Path_870" data-name="Path 870" d="M13.233,27.607V25.878L31.11,30.986l17.853-5.1v18.4h-.005a37.218,37.218,0,0,1-35.719,0h-.005V36.539" transform="translate(0.154 0.775)" fill="#54a4dc" stroke="#29383e" stroke-linecap="round" stroke-linejoin="round" stroke-width="0.992"/>
        <line id="Line_46" data-name="Line 46" y1="2.977" transform="translate(13.387 31.359)" fill="#54a4dc" stroke="#29383e" stroke-linecap="round" stroke-linejoin="round" stroke-width="0.992"/>
        <path id="Path_871" data-name="Path 871" d="M13.238,35.855h-.005v7.937h.005a37.218,37.218,0,0,0,35.719,0h.005v-7.94h-.005a37.218,37.218,0,0,1-35.719,0Z" transform="translate(0.154 1.264)" fill="#fff" stroke="#29383e" stroke-linecap="round" stroke-linejoin="round" stroke-width="0.992"/>
        <line id="Line_47" data-name="Line 47" y2="14.888" transform="translate(57.565 24.564)" fill="none" stroke="#29383e" stroke-linecap="round" stroke-linejoin="round" stroke-width="0.992"/>
        <circle id="Ellipse_24" data-name="Ellipse 24" cx="8.932" cy="8.932" r="8.932" transform="translate(22.331)" fill="#ffbe10" stroke="#29383e" stroke-linecap="round" stroke-linejoin="round" stroke-width="0.992"/>
        <path id="Path_872" data-name="Path 872" d="M23.7,16.015.473,22.537l31.263,8.932L63,22.537,39.772,16.015" transform="translate(-0.473 0.29)" fill="none" stroke="#29383e" stroke-linecap="round" stroke-linejoin="round" stroke-width="0.992"/>
        <circle id="Ellipse_25" data-name="Ellipse 25" cx="6.451" cy="6.451" r="6.451" transform="translate(24.812 2.481)" fill="none" stroke="#29383e" stroke-linecap="round" stroke-linejoin="round" stroke-width="0.992"/>
        <path id="Path_873" data-name="Path 873" d="M32.115,6.86l-2.983-.012a.992.992,0,0,0-1,1V8.1a.992.992,0,0,0,1,.986L31.6,9.082a.992.992,0,0,1,1,.992v.249a.992.992,0,0,1-.988.992l-2.966.012" transform="translate(0.885 -0.16)" fill="none" stroke="#29383e" stroke-linecap="round" stroke-linejoin="round" stroke-width="0.992"/>
        <path id="Path_874" data-name="Path 874" d="M56.9,43.04H53.924l.5-4.962h1.985Z" transform="translate(2.152 1.374)" fill="#e83b3e" stroke="#29383e" stroke-linecap="round" stroke-linejoin="round" stroke-width="0.992"/>
        <line id="Line_48" data-name="Line 48" y1="3.97" transform="translate(6.451 2.481)" fill="none" stroke="#29383e" stroke-linecap="round" stroke-linejoin="round" stroke-width="0.992"/>
        <line id="Line_49" data-name="Line 49" x2="3.97" transform="translate(4.466 4.466)" fill="none" stroke="#29383e" stroke-linecap="round" stroke-linejoin="round" stroke-width="0.992"/>
        <line id="Line_50" data-name="Line 50" y1="3.97" transform="translate(14.392 9.428)" fill="none" stroke="#29383e" stroke-linecap="round" stroke-linejoin="round" stroke-width="0.992"/>
        <line id="Line_51" data-name="Line 51" x2="3.971" transform="translate(12.406 11.413)" fill="none" stroke="#29383e" stroke-linecap="round" stroke-linejoin="round" stroke-width="0.992"/>
        <rect id="Rectangle_624" data-name="Rectangle 624" width="13.894" height="2.977" rx="1.049" transform="translate(24.304 21.339)" fill="none" stroke="#29383e" stroke-linecap="round" stroke-linejoin="round" stroke-width="0.992"/>
      </g>
    </g>
  </g>
</svg>
