<svg xmlns="http://www.w3.org/2000/svg" viewBox="0 0 43 62"><defs><style>.cls-1{fill:#ffca28;}.cls-1,.cls-2,.cls-3,.cls-4{stroke:#37474f;stroke-linecap:round;stroke-linejoin:round;}.cls-2{fill:#ef5350;}.cls-3{fill:#64b5f6;}.cls-4{fill:none;}</style></defs><g id="Layer_2" data-name="Layer 2"><g id="Icon_Set" data-name="Icon Set"><circle class="cls-1" cx="21.5" cy="8.5" r="3"/><line class="cls-2" x1="23" y1="14.5" x2="23" y2="29.5"/><line class="cls-2" x1="20" y1="14.5" x2="20" y2="22"/><rect class="cls-3" x="30.5" y="14.16" width="12" height="4"/><path class="cls-3" d="M21,61.5H34a8,8,0,0,0,8-8h0a8,8,0,0,0-8-8H31.5a10,10,0,0,0-10-10h0a10,10,0,0,0-10,10H9a8,8,0,0,0-8,8H1a8,8,0,0,0,8,8h3"/><path class="cls-4" d="M21.5,38.5a7,7,0,0,1,7,7"/><line class="cls-3" x1="15" y1="61.5" x2="18" y2="61.5"/><polyline class="cls-1" points="33.02 42.16 42.5 42.16 42.5 38.16 30.97 38.16"/><path class="cls-4" d="M41.36,46.75a2.49,2.49,0,0,0,1.14-2.09v-33A2.5,2.5,0,0,0,40,9.16H33a2.5,2.5,0,0,0-2.5,2.5V37.59"/><path class="cls-4" d="M27.5,35.12V3A2.5,2.5,0,0,0,25,.5H18A2.5,2.5,0,0,0,15.5,3V35.12"/><path class="cls-4" d="M12.5,37.59V12A2.5,2.5,0,0,0,10,9.5H3A2.5,2.5,0,0,0,.5,12V45a2.46,2.46,0,0,0,1,2"/><polygon class="cls-2" points="8.5 21.5 6.5 19.5 4.5 21.5 4.5 9.5 8.5 9.5 8.5 21.5"/></g></g></svg>