<svg xmlns="http://www.w3.org/2000/svg" width="58.665" height="43.316" viewBox="0 0 58.665 43.316">
  <g id="Students" transform="translate(29.333 21.829)">
    <g id="Group_146" data-name="Group 146" transform="translate(-28.992 -21.488)">
      <g id="Student_Female" data-name="Student Female" transform="translate(-0.341 -0.341)">
        <g id="Group_144" data-name="Group 144">
          <path id="Path_778" data-name="Path 778" d="M35.131,27.627" fill="#ffbe10"/>
          <path id="Path_779" data-name="Path 779" d="M54.231,38.541h4.093v-7.21A6.821,6.821,0,0,0,53.9,24.944l-6.487-2.433L44.681,28.65l-2.729-6.139-6.488,2.433a6.821,6.821,0,0,0-4.426,6.387v7.21" fill="#ffbe10"/>
          <path id="Path_780" data-name="Path 780" d="M36.1,38.541H49.168a35.536,35.536,0,0,1,3.8,0" fill="#ffbe10"/>
          <path id="Path_781" data-name="Path 781" d="M47.409,22.511H51.97a1.7,1.7,0,0,0,1.64-2.174l-1.425-4.989" fill="none" stroke="#29383e" stroke-linecap="round" stroke-linejoin="round" stroke-width="0.682"/>
          <path id="Path_782" data-name="Path 782" d="M37.177,15.348l-1.425,4.989a1.705,1.705,0,0,0,1.64,2.174h4.561" fill="none" stroke="#29383e" stroke-linecap="round" stroke-linejoin="round" stroke-width="0.682"/>
          <path id="Path_783" data-name="Path 783" d="M58.324,38.541v-7.21A6.821,6.821,0,0,0,53.9,24.944l-6.487-2.433L44.681,28.65l-2.729-6.139-6.488,2.433a6.821,6.821,0,0,0-4.426,6.387v7.21" fill="none" stroke="#29383e" stroke-linecap="round" stroke-linejoin="round" stroke-width="0.682"/>
          <circle id="Ellipse_11" data-name="Ellipse 11" cx="0.682" cy="0.682" r="0.682" transform="translate(46.386 11.938)" fill="#29383e"/>
          <circle id="Ellipse_12" data-name="Ellipse 12" cx="0.682" cy="0.682" r="0.682" transform="translate(41.611 11.938)" fill="#29383e"/>
          <path id="Path_784" data-name="Path 784" d="M44.681,21.147a7.459,7.459,0,0,1-2.729-.519v1.883l2.729,6.139,2.729-6.139V20.628A7.459,7.459,0,0,1,44.681,21.147Z" fill="none" stroke="#29383e" stroke-linecap="round" stroke-linejoin="round" stroke-width="0.682"/>
          <path id="Path_785" data-name="Path 785" d="M52.184,1.705V8.527H37.177V1.705" fill="#54a4dc" stroke="#29383e" stroke-linecap="round" stroke-linejoin="round" stroke-width="0.682"/>
          <path id="Path_786" data-name="Path 786" d="M42.634.341h12.62a.682.682,0,0,1,.682.682h0a.682.682,0,0,1-.682.682H34.107a.682.682,0,0,1-.682-.682h0a.682.682,0,0,1,.682-.682h2.388" fill="#54a4dc" stroke="#29383e" stroke-linecap="round" stroke-linejoin="round" stroke-width="0.682"/>
          <line id="Line_10" data-name="Line 10" x2="2.047" transform="translate(38.541 0.341)" fill="#54a4dc" stroke="#29383e" stroke-linecap="round" stroke-linejoin="round" stroke-width="0.682"/>
          <line id="Line_11" data-name="Line 11" y2="8.186" transform="translate(34.448 1.705)" fill="#fff" stroke="#29383e" stroke-linecap="round" stroke-linejoin="round" stroke-width="0.682"/>
          <path id="Path_787" data-name="Path 787" d="M37.177,11.938a1.706,1.706,0,1,0,0,3.411,1.68,1.68,0,0,0,.2-.02,7.5,7.5,0,0,0,14.613,0,1.68,1.68,0,0,0,.2.02,1.705,1.705,0,0,0,0-3.411" fill="none" stroke="#29383e" stroke-linecap="round" stroke-linejoin="round" stroke-width="0.682"/>
          <path id="Path_788" data-name="Path 788" d="M39.223,9.891v2.046a1.705,1.705,0,0,1-1.705,1.7h-.341V9.891" fill="none" stroke="#29383e" stroke-linecap="round" stroke-linejoin="round" stroke-width="0.682"/>
          <path id="Path_789" data-name="Path 789" d="M50.138,9.891v2.046a1.7,1.7,0,0,0,1.705,1.7h.341V9.891" fill="none" stroke="#29383e" stroke-linecap="round" stroke-linejoin="round" stroke-width="0.682"/>
          <path id="Path_790" data-name="Path 790" d="M44.681,43.316" fill="#e83b3e" stroke="#29383e" stroke-linecap="round" stroke-linejoin="round" stroke-width="0.682"/>
          <path id="Path_791" data-name="Path 791" d="M44.681,30.356" fill="#e83b3e" stroke="#29383e" stroke-linecap="round" stroke-linejoin="round" stroke-width="0.682"/>
          <path id="Path_792" data-name="Path 792" d="M44.681,18.1a2.729,2.729,0,0,0,2.729-2.729H41.952A2.729,2.729,0,0,0,44.681,18.1Z" fill="none" stroke="#29383e" stroke-linecap="round" stroke-linejoin="round" stroke-width="0.682"/>
        </g>
      </g>
      <g id="Student_Male" data-name="Student Male" transform="translate(-0.341 -0.341)">
        <g id="Group_145" data-name="Group 145">
          <path id="Path_793" data-name="Path 793" d="M14.666,38.48V28.65l-2.729-6.139L3.754,25.4A5.116,5.116,0,0,0,.341,30.223v8.318H5.116l7.31-.061" fill="#ffbe10"/>
          <path id="Path_794" data-name="Path 794" d="M15.351,38.541h13.64V30.223A5.116,5.116,0,0,0,25.579,25.4L17.4,22.512,14.666,28.65v9.83" fill="#ffbe10"/>
          <circle id="Ellipse_13" data-name="Ellipse 13" cx="0.682" cy="0.682" r="0.682" transform="translate(16.372 11.938)" fill="#29383e"/>
          <circle id="Ellipse_14" data-name="Ellipse 14" cx="0.682" cy="0.682" r="0.682" transform="translate(11.597 11.938)" fill="#29383e"/>
          <path id="Path_795" data-name="Path 795" d="M14.666,21.147a7.459,7.459,0,0,1-2.729-.519v1.883l2.729,6.139L17.4,22.511V20.628a7.459,7.459,0,0,1-2.729.519Z" fill="none" stroke="#29383e" stroke-linecap="round" stroke-linejoin="round" stroke-width="0.682"/>
          <path id="Path_796" data-name="Path 796" d="M22.17,1.705V8.527H7.163V1.705" fill="#54a4dc" stroke="#29383e" stroke-linecap="round" stroke-linejoin="round" stroke-width="0.682"/>
          <path id="Path_797" data-name="Path 797" d="M12.62.341H25.24a.682.682,0,0,1,.682.682h0a.682.682,0,0,1-.682.682H4.093a.682.682,0,0,1-.682-.682h0A.682.682,0,0,1,4.093.341H6.48" fill="#54a4dc" stroke="#29383e" stroke-linecap="round" stroke-linejoin="round" stroke-width="0.682"/>
          <line id="Line_12" data-name="Line 12" x2="2.046" transform="translate(8.527 0.341)" fill="#54a4dc" stroke="#29383e" stroke-linecap="round" stroke-linejoin="round" stroke-width="0.682"/>
          <line id="Line_13" data-name="Line 13" y2="8.186" transform="translate(4.434 1.705)" fill="#fff" stroke="#29383e" stroke-linecap="round" stroke-linejoin="round" stroke-width="0.682"/>
          <path id="Path_798" data-name="Path 798" d="M7.163,11.938a1.706,1.706,0,1,0,0,3.411,1.68,1.68,0,0,0,.2-.02,7.5,7.5,0,0,0,14.613,0,1.68,1.68,0,0,0,.2.02,1.705,1.705,0,1,0,0-3.411" fill="none" stroke="#29383e" stroke-linecap="round" stroke-linejoin="round" stroke-width="0.682"/>
          <path id="Path_799" data-name="Path 799" d="M9.209,9.891v2.046A1.7,1.7,0,0,1,7.5,13.643H7.163V9.891" fill="none" stroke="#29383e" stroke-linecap="round" stroke-linejoin="round" stroke-width="0.682"/>
          <path id="Path_800" data-name="Path 800" d="M20.123,9.891v2.046a1.705,1.705,0,0,0,1.7,1.7h.341V9.891" fill="none" stroke="#29383e" stroke-linecap="round" stroke-linejoin="round" stroke-width="0.682"/>
          <path id="Path_801" data-name="Path 801" d="M28.991,38.541V30.223A5.116,5.116,0,0,0,25.579,25.4L17.4,22.512" fill="none" stroke="#29383e" stroke-linecap="round" stroke-linejoin="round" stroke-width="0.682"/>
          <path id="Path_802" data-name="Path 802" d="M11.938,22.511,3.754,25.4A5.116,5.116,0,0,0,.341,30.223v8.318" fill="none" stroke="#29383e" stroke-linecap="round" stroke-linejoin="round" stroke-width="0.682"/>
          <path id="Path_803" data-name="Path 803" d="M14.666,18.1A2.729,2.729,0,0,0,17.4,15.371H11.938A2.729,2.729,0,0,0,14.666,18.1Z" fill="none" stroke="#29383e" stroke-linecap="round" stroke-linejoin="round" stroke-width="0.682"/>
        </g>
      </g>
    </g>
  </g>
</svg>
