<svg xmlns="http://www.w3.org/2000/svg" xmlns:xlink="http://www.w3.org/1999/xlink" viewBox="0 0 81.12 41.58"><defs><style>.cls-1,.cls-5,.cls-7{fill:none;}.cls-2{clip-path:url(#clip-path);}.cls-3{clip-path:url(#clip-path-2);}.cls-4{fill:#64b5f6;}.cls-4,.cls-6,.cls-8,.cls-9{fill-rule:evenodd;}.cls-5{stroke:#37474f;}.cls-5,.cls-7{stroke-linecap:round;stroke-linejoin:round;stroke-width:1.15px;}.cls-6{fill:#ef5350;}.cls-7{stroke:#ffca28;}.cls-8{fill:#ffca28;}.cls-9{fill:#fff;}</style><clipPath id="clip-path" transform="translate(0 0)"><rect class="cls-1" width="81.12" height="41.58"/></clipPath><clipPath id="clip-path-2" transform="translate(0 0)"><rect class="cls-1" width="81.12" height="41.58"/></clipPath></defs><g id="Layer_2" data-name="Layer 2"><g id="Icon_Set" data-name="Icon Set"><g id="Transport"><g class="cls-2"><g class="cls-3"><path class="cls-4" d="M3,17.54,13.9,13.9S15.11,3.9,15.11,3A2.66,2.66,0,0,1,17.54.57H78.12A2.43,2.43,0,0,1,80.55,3V32.08a2.42,2.42,0,0,1-2.43,2.42H3A2.42,2.42,0,0,1,.57,32.08V20c0-1.34,1.53-1.9,2.43-2.42" transform="translate(0 0)"/><path class="cls-5" d="M3,17.54,13.9,13.9S15.11,3.9,15.11,3A2.66,2.66,0,0,1,17.54.57H78.12A2.43,2.43,0,0,1,80.55,3V32.08a2.42,2.42,0,0,1-2.43,2.42H3A2.42,2.42,0,0,1,.57,32.08V20C.57,18.62,2.1,18.06,3,17.54Z" transform="translate(0 0)"/><path class="cls-6" d="M22,7.24h7.27a1.21,1.21,0,0,1,1.21,1.21V26.63a1.21,1.21,0,0,1-1.21,1.21H22a1.22,1.22,0,0,1-1.22-1.21V8.45A1.22,1.22,0,0,1,22,7.24" transform="translate(0 0)"/><rect class="cls-5" x="20.78" y="7.24" width="9.69" height="20.6" rx="1.21"/><line class="cls-5" x1="25.63" y1="7.24" x2="25.63" y2="27.84"/><line class="cls-7" x1="75.58" y1="22.12" x2="35.94" y2="22.12"/><line class="cls-7" x1="75.58" y1="18.68" x2="35.94" y2="18.68"/><path class="cls-8" d="M36.77,6.09h6.06A1.21,1.21,0,0,1,44,7.3v4.84a1.22,1.22,0,0,1-1.21,1.22H36.77a1.22,1.22,0,0,1-1.22-1.22V7.3a1.22,1.22,0,0,1,1.22-1.21" transform="translate(0 0)"/><path class="cls-8" d="M47.45,6.09h6.06A1.22,1.22,0,0,1,54.73,7.3v4.84a1.22,1.22,0,0,1-1.22,1.22H47.45a1.22,1.22,0,0,1-1.21-1.22V7.3a1.21,1.21,0,0,1,1.21-1.21" transform="translate(0 0)"/><path class="cls-8" d="M58.14,6.09H64.2A1.21,1.21,0,0,1,65.41,7.3v4.84a1.22,1.22,0,0,1-1.21,1.22H58.14a1.22,1.22,0,0,1-1.21-1.22V7.3a1.21,1.21,0,0,1,1.21-1.21" transform="translate(0 0)"/><path class="cls-8" d="M68.83,6.09h6.06A1.21,1.21,0,0,1,76.1,7.3v4.84a1.22,1.22,0,0,1-1.21,1.22H68.83a1.22,1.22,0,0,1-1.21-1.22V7.3a1.21,1.21,0,0,1,1.21-1.21" transform="translate(0 0)"/><path class="cls-6" d="M13,28.12a6.45,6.45,0,1,1-6.45,6.44A6.44,6.44,0,0,1,13,28.12" transform="translate(0 0)"/><path class="cls-5" d="M13,28.12a6.45,6.45,0,1,1-6.45,6.44A6.44,6.44,0,0,1,13,28.12Z" transform="translate(0 0)"/><path class="cls-9" d="M14.83,34.78A1.79,1.79,0,1,1,13,33a1.8,1.8,0,0,1,1.79,1.79" transform="translate(0 0)"/><path class="cls-5" d="M14.83,34.78A1.79,1.79,0,1,1,13,33,1.8,1.8,0,0,1,14.83,34.78Z" transform="translate(0 0)"/><path class="cls-6" d="M68,28.12a6.45,6.45,0,1,1-6.45,6.44A6.44,6.44,0,0,1,68,28.12" transform="translate(0 0)"/><path class="cls-5" d="M68,28.12a6.45,6.45,0,1,1-6.45,6.44A6.44,6.44,0,0,1,68,28.12Z" transform="translate(0 0)"/><path class="cls-9" d="M69.8,34.78A1.8,1.8,0,1,1,68,33a1.8,1.8,0,0,1,1.79,1.79" transform="translate(0 0)"/><path class="cls-5" d="M69.8,34.78A1.8,1.8,0,1,1,68,33,1.8,1.8,0,0,1,69.8,34.78Z" transform="translate(0 0)"/></g></g></g></g></g></svg>